name analog
datacolumns 19
datarows 35
range 0.448 0.465
endheader
time	ground_force_vx	ground_force_vy	ground_force_vz	ground_force_px	ground_force_py	ground_force_pz	l_ground_force_vx	l_ground_force_vy	l_ground_force_vz	l_ground_force_px	l_ground_force_py	l_ground_force_pz	ground_torque_x	ground_torque_y	ground_torque_z	l_ground_torque_x	l_ground_torque_y	l_ground_torque_z
0.448	-0.0	-0.0	-0.0	-0.0	-0.0	-0.0	-1.1297204494476318	6.577292919158936	-533.8317260742188	-0.0	-0.0	-0.0	-0.0	-0.0	-0.0	180704.890625	-27213.169921875	-2202.136474609375
0.4485	-0.0	-0.0	-0.0	-0.0	-0.0	-0.0	-1.1818337440490725	6.624126434326172	-535.3937377929688	-0.0	-0.0	-0.0	-0.0	-0.0	-0.0	181082.078125	-27285.69140625	-2289.417724609375
0.449	-0.0	-0.0	-0.0	-0.0	-0.0	-0.0	-1.7226243019104004	6.754207611083984	-535.4334716796875	-0.0	-0.0	-0.0	-0.0	-0.0	-0.0	181273.03125	-27661.40625	-2453.8056640625
0.4495	-0.0	-0.0	-0.0	-0.0	-0.0	-0.0	-2.1990034580230717	6.870407581329346	-535.7642211914062	-0.0	-0.0	-0.0	-0.0	-0.0	-0.0	181659.59375	-27960.388671875	-2557.20166015625
0.45	-0.0	-0.0	-0.0	-0.0	-0.0	-0.0	-2.464958906173706	6.912245273590088	-538.0256958007812	-0.0	-0.0	-0.0	-0.0	-0.0	-0.0	181929.609375	-28167.42578125	-2619.651611328125
0.4505	-0.0	-0.0	-0.0	-0.0	-0.0	-0.0	-2.773213148117065	6.531818389892578	-537.9356689453125	-0.0	-0.0	-0.0	-0.0	-0.0	-0.0	182363.734375	-28285.7890625	-2519.07861328125
0.451	-0.0	-0.0	-0.0	-0.0	-0.0	-0.0	-3.189859390258789	6.051891803741455	-539.090087890625	-0.0	-0.0	-0.0	-0.0	-0.0	-0.0	182606.15625	-28283.296875	-2609.919921875
0.4515	-0.0	-0.0	-0.0	-0.0	-0.0	-0.0	-4.100254535675049	5.4529948234558105	-540.046875	-0.0	-0.0	-0.0	-0.0	-0.0	-0.0	182869.484375	-28244.912109375	-2626.214599609375
0.452	-0.0	-0.0	-0.0	-0.0	-0.0	-0.0	-4.658907890319824	4.550151824951172	-542.232421875	-0.0	-0.0	-0.0	-0.0	-0.0	-0.0	183448.9375	-28318.357421875	-2910.298095703125
0.4525	-0.0	-0.0	-0.0	-0.0	-0.0	-0.0	-5.480101585388184	4.700929164886475	-543.3701171875	-0.0	-0.0	-0.0	-0.0	-0.0	-0.0	183969.40625	-28350.419921875	-3029.4208984375
0.453	-0.0	-0.0	-0.0	-0.0	-0.0	-0.0	-5.634454250335693	4.151119232177734	-545.3644409179688	-0.0	-0.0	-0.0	-0.0	-0.0	-0.0	184842.28125	-28401.544921875	-3206.669189453125
0.4535	-0.0	-0.0	-0.0	-0.0	-0.0	-0.0	-6.389540672302246	4.173788070678711	-548.0074462890625	-0.0	-0.0	-0.0	-0.0	-0.0	-0.0	185750.109375	-28326.23828125	-3236.8642578125
0.454	-0.0	-0.0	-0.0	-0.0	-0.0	-0.0	-6.498596668243408	3.711628675460816	-550.003173828125	-0.0	-0.0	-0.0	-0.0	-0.0	-0.0	186550.75	-28203.275390625	-3459.18408203125
0.4545	-0.0	-0.0	-0.0	-0.0	-0.0	-0.0	-6.9176225662231445	3.600466728210449	-552.6998291015625	-0.0	-0.0	-0.0	-0.0	-0.0	-0.0	187105.390625	-28848.0234375	-3451.99365234375
0.455	-0.0	-0.0	-0.0	-0.0	-0.0	-0.0	-6.963024616241455	3.290367126464844	-552.713134765625	-0.0	-0.0	-0.0	-0.0	-0.0	-0.0	187288.109375	-28908.75	-3333.001220703125
0.4555	-0.0	-0.0	-0.0	-0.0	-0.0	-0.0	-6.588411331176758	2.8711061477661133	-553.5773315429688	-0.0	-0.0	-0.0	-0.0	-0.0	-0.0	187938.46875	-29195.1875	-3126.205810546875
0.456	-0.0	-0.0	-0.0	-0.0	-0.0	-0.0	-6.364748954772949	2.4943411350250244	-553.7623291015625	-0.0	-0.0	-0.0	-0.0	-0.0	-0.0	188271.28125	-29471.919921875	-3022.7939453125
0.4565	-0.0	-0.0	-0.0	-0.0	-0.0	-0.0	-6.586203098297119	2.49451756477356	-555.151123046875	-0.0	-0.0	-0.0	-0.0	-0.0	-0.0	188356.96875	-29774.671875	-3089.365966796875
0.457	-0.0	-0.0	-0.0	-0.0	-0.0	-0.0	-6.254337787628174	2.3190102577209477	-555.414306640625	-0.0	-0.0	-0.0	-0.0	-0.0	-0.0	188844.609375	-29858.580078125	-3007.380859375
0.4575	-0.0	-0.0	-0.0	-0.0	-0.0	-0.0	-5.965845108032227	2.848419189453125	-555.0636596679688	-0.0	-0.0	-0.0	-0.0	-0.0	-0.0	188996.84375	-30278.39453125	-2969.923583984375
0.458	-0.0	-0.0	-0.0	-0.0	-0.0	-0.0	-5.145166873931885	3.135449171066284	-556.1112670898438	-0.0	-0.0	-0.0	-0.0	-0.0	-0.0	189179.671875	-30741.88671875	-2776.47998046875
0.4585	-0.0	-0.0	-0.0	-0.0	-0.0	-0.0	-4.613328456878662	3.6211891174316406	-556.2000122070312	-0.0	-0.0	-0.0	-0.0	-0.0	-0.0	189301.609375	-31032.724609375	-2538.697998046875
0.459	-0.0	-0.0	-0.0	-0.0	-0.0	-0.0	-3.8359389305114746	3.974475860595703	-555.5052490234375	-0.0	-0.0	-0.0	-0.0	-0.0	-0.0	188901.484375	-31236.88671875	-2263.5478515625
0.4595	-0.0	-0.0	-0.0	-0.0	-0.0	-0.0	-3.393845796585083	4.018199920654297	-553.05615234375	-0.0	-0.0	-0.0	-0.0	-0.0	-0.0	188633.140625	-31518.9375	-2055.260986328125
0.46	-0.0	-0.0	-0.0	-0.0	-0.0	-0.0	-2.8618125915527344	4.129333972930908	-552.6209106445312	-0.0	-0.0	-0.0	-0.0	-0.0	-0.0	188132.671875	-31750.443359375	-2085.1826171875
0.4605	-0.0	-0.0	-0.0	-0.0	-0.0	-0.0	-3.126699686050415	4.769371032714844	-550.7951049804688	-0.0	-0.0	-0.0	-0.0	-0.0	-0.0	187682.71875	-31954.30078125	-1973.90869140625
0.461	-0.0	-0.0	-0.0	-0.0	-0.0	-0.0	-3.039642333984375	5.21270227432251	-547.647705078125	-0.0	-0.0	-0.0	-0.0	-0.0	-0.0	187441.734375	-32329.95703125	-2076.741943359375
0.4615	-0.0	-0.0	-0.0	-0.0	-0.0	-0.0	-2.8820979595184326	5.956722736358643	-546.5155029296875	-0.0	-0.0	-0.0	-0.0	-0.0	-0.0	186871.71875	-32320.3515625	-2061.852294921875
0.462	-0.0	-0.0	-0.0	-0.0	-0.0	-0.0	-2.3713314533233643	7.022690296173096	-544.50634765625	-0.0	-0.0	-0.0	-0.0	-0.0	-0.0	186433.03125	-32569.267578125	-2226.20556640625
0.4625	-0.0	-0.0	-0.0	-0.0	-0.0	-0.0	-2.6372323036193848	7.461912155151367	-542.1476440429688	-0.0	-0.0	-0.0	-0.0	-0.0	-0.0	185313.28125	-32394.251953125	-2254.447265625
0.463	-0.0	-0.0	-0.0	-0.0	-0.0	-0.0	-2.8845133781433105	8.013082504272461	-539.1011962890625	-0.0	-0.0	-0.0	-0.0	-0.0	-0.0	184478.4375	-32324.08984375	-2082.73388671875
0.4635	-0.0	-0.0	-0.0	-0.0	-0.0	-0.0	-3.3526618480682373	7.924583435058594	-533.7684936523438	-0.0	-0.0	-0.0	-0.0	-0.0	-0.0	183189.109375	-32102.70703125	-2241.543212890625
0.464	-0.0	-0.0	-0.0	-0.0	-0.0	-0.0	-4.105402946472168	7.948951721191406	-531.4220581054688	-0.0	-0.0	-0.0	-0.0	-0.0	-0.0	181604.234375	-31725.9453125	-2441.614013671875
0.4645	-0.0	-0.0	-0.0	-0.0	-0.0	-0.0	-4.524250030517578	8.058455467224121	-526.2552490234375	-0.0	-0.0	-0.0	-0.0	-0.0	-0.0	180522.609375	-31455.015625	-2597.37744140625
0.465	-0.0	-0.0	-0.0	-0.0	-0.0	-0.0	-5.343845844268799	8.167806625366211	-521.3822631835938	-0.0	-0.0	-0.0	-0.0	-0.0	-0.0	178976.359375	-30822.390625	-2692.755126953125
